name C:\Users\u0101727\Documents\MyRepositories\upper-imu-dc\Results\main_tracking\Case_15\kinematics.mot
datacolumns 10
datarows 37
range 4.62000000 4.98000000
endheader 
time	clav_prot	clav_elev	scapula_abduction	scapula_elevation	scapula_upward_rot	scapula_winging	plane_elv	shoulder_elv	axial_rot	
          4.62000000	        -35.45902483	          6.28490885	        -12.69965595	         -3.51582813	         47.63156537	         -7.44945195	         -3.49068946	         60.98216946	          6.06311853	
          4.63000000	        -35.55119157	          6.35986322	        -12.67354589	         -3.49305566	         47.88395772	         -7.53711718	         -3.34956935	         61.20761051	          6.07107546	
          4.64000000	        -35.64002180	          6.43336583	        -12.64429402	         -3.47037461	         48.13260875	         -7.62237108	         -3.21029103	         61.43768286	          6.08395732	
          4.65000000	        -35.72568160	          6.50500504	        -12.61211931	         -3.44808870	         48.37742629	         -7.70514677	         -3.07296396	         61.67282155	          6.10202556	
          4.66000000	        -35.80868917	          6.57428699	        -12.57747674	         -3.42661759	         48.61870618	         -7.78554395	         -2.93736301	         61.91282353	          6.12433012	
          4.67000000	        -35.88981268	          6.64067130	        -12.54098763	         -3.40645283	         48.85702415	         -7.86378644	         -2.80300366	         62.15697749	          6.14884657	
          4.68000000	        -35.96995812	          6.70363798	        -12.50344511	         -3.38808455	         49.09302937	         -7.94017220	         -2.66914041	         62.40423394	          6.17291300	
          4.69000000	        -36.05009998	          6.76283293	        -12.46593517	         -3.37187741	         49.32721677	         -8.01505988	         -2.53464711	         62.65328085	          6.19387885	
          4.70000000	        -36.13125803	          6.81828479	        -12.43002424	         -3.35790640	         49.55974220	         -8.08889963	         -2.39784606	         62.90249752	          6.20977832	
          4.71000000	        -36.21447654	          6.87061279	        -12.39788083	         -3.34580699	         49.79031966	         -8.16227317	         -2.25643534	         63.14988517	          6.21979191	
          4.72000000	        -36.30075382	          6.92111214	        -12.37218982	         -3.33471464	         50.01822031	         -8.23589235	         -2.10765286	         63.39311715	          6.22430534	
          4.73000000	        -36.39089829	          6.97163568	        -12.35579215	         -3.32334646	         50.24237367	         -8.31052224	         -1.94872100	         63.62979781	          6.22450875	
          4.74000000	        -36.48533586	          7.02426997	        -12.35110263	         -3.31022584	         50.46155649	         -8.38683331	         -1.77748511	         63.85790220	          6.22164336	
          4.75000000	        -36.58392981	          7.08088148	        -12.35946545	         -3.29399860	         50.67463028	         -8.46522207	         -1.59305609	         64.07627174	          6.21614684	
          4.76000000	        -36.68588474	          7.14266681	        -12.38066627	         -3.27374892	         50.88075989	         -8.54565931	         -1.39622717	         64.28499437	          6.20702986	
          4.77000000	        -36.78978381	          7.20983938	        -12.41278886	         -3.24922252	         51.07953592	         -8.62761846	         -1.18948751	         64.48553459	          6.19177300	
          4.78000000	        -36.89376201	          7.28152780	        -12.45248058	         -3.22090428	         51.27095718	         -8.71010739	         -0.97659665	         64.68057462	          6.16683715	
          4.79000000	        -36.99577355	          7.35588671	        -12.49553487	         -3.18994983	         51.45530007	         -8.79179391	         -0.76185074	         64.87362101	          6.12860649	
          4.80000000	        -37.09389160	          7.43037575	        -12.53760255	         -3.15800402	         51.63296365	         -8.87119732	         -0.54926807	         65.06846719	          6.07439922	
          4.81000000	        -37.18658904	          7.50215485	        -12.57485344	         -3.12694469	         51.80438576	         -8.94691675	         -0.34190037	         65.26858788	          6.00319668	
          4.82000000	        -37.27296705	          7.56854888	        -12.60448508	         -3.09858355	         51.97007263	         -9.01786873	         -0.14138284	         65.47652729	          5.91591967	
          4.83000000	        -37.35290576	          7.62752727	        -12.62504611	         -3.07435652	         52.13070834	         -9.08350058	          0.05225231	         65.69336013	          5.81528619	
          4.84000000	        -37.42711073	          7.67812486	        -12.63657264	         -3.05504640	         52.28726145	         -9.14393841	          0.24051945	         65.91833533	          5.70540749	
          4.85000000	        -37.49703320	          7.72071668	        -12.64053523	         -3.04059038	         52.44100878	         -9.20002942	          0.42621214	         66.14881522	          5.59129028	
          4.86000000	        -37.56465899	          7.75706925	        -12.63958937	         -3.03002323	         52.59343983	         -9.25325420	          0.61295748	         66.38057960	          5.47835060	
          4.87000000	        -37.63218826	          7.79013032	        -12.63713579	         -3.02158527	         52.74606226	         -9.30551207	          0.80463503	         66.60848185	          5.37196886	
          4.88000000	        -37.70165471	          7.82357832	        -12.63672886	         -3.01298850	         52.90016887	         -9.35881159	          1.00472167	         66.82735431	          5.27706863	
          4.89000000	        -37.77454764	          7.86121268	        -12.64140938	         -3.00179458	         53.05663695	         -9.41492050	          1.21564082	         67.03299412	          5.19769521	
          4.90000000	        -37.85150606	          7.90630658	        -12.65307086	         -2.98582987	         53.21581883	         -9.47504117	          1.43821294	         67.22302951	          5.13659903	
          4.91000000	        -37.93215579	          7.96105320	        -12.67199090	         -2.96355460	         53.37755953	         -9.53958162	          1.67132659	         67.39746731	          5.09488100	
          4.92000000	        -38.01515093	          8.02621898	        -12.69665930	         -2.93431265	         53.54134856	         -9.60808339	          1.91195502	         67.55876102	          5.07180558	
          4.93000000	        -38.09843922	          8.10107577	        -12.72398365	         -2.89841165	         53.70657318	         -9.67933723	          2.15558413	         67.71134087	          5.06488643	
          4.94000000	        -38.17969572	          8.18362191	        -12.74984251	         -2.85701836	         53.87279970	         -9.75166239	          2.39698026	         67.86070905	          5.07027320	
          4.95000000	        -38.25680092	          8.27103084	        -12.76983950	         -2.81189755	         54.03999004	         -9.82327021	          2.63108986	         68.01235071	          5.08336084	
          4.96000000	        -38.32822818	          8.36020843	        -12.78005879	         -2.76506248	         54.20858040	         -9.89260880	          2.85382660	         68.17075779	          5.09948183	
          4.97000000	        -38.39325313	          8.44831749	        -12.77765074	         -2.71842722	         54.37940131	         -9.95860390	          3.06257542	         68.33879140	          5.11454534	
          4.98000000	        -38.45196629	          8.53314475	        -12.76114842	         -2.67354662	         54.55347175	        -10.02075247	          3.25636052	         68.51748265	          5.12553083	
